<svg width="30" height="30" viewBox="0 0 30 30" fill="none" xmlns="http://www.w3.org/2000/svg">
<path d="M18.1002 4C15.3983 4 13.2003 6.19795 13.2003 8.89995C13.2003 11.602 15.3982 13.7999 18.1002 13.7999C20.8022 13.7999 23.0002 11.6019 23.0002 8.89995C23.0002 6.19801 20.8022 4 18.1002 4ZM18.1002 12.3999C16.1711 12.3999 14.6003 10.8291 14.6003 8.89995C14.6003 6.9708 16.1711 5.40002 18.1002 5.40002C20.0294 5.40002 21.6001 6.9708 21.6001 8.89995C21.6001 10.8291 20.0294 12.3999 18.1002 12.3999Z" fill="white"/>
<path d="M8.39916 9.59961C6.46857 9.59961 4.89923 11.1704 4.89923 13.0995C4.89923 15.0287 6.47001 16.5995 8.39916 16.5995C10.3283 16.5995 11.8991 15.0287 11.8991 13.0995C11.8991 11.1704 10.3297 9.59961 8.39916 9.59961ZM8.39916 15.1995C7.24136 15.1995 6.29919 14.2574 6.29919 13.0995C6.29919 11.9417 7.24136 10.9996 8.39916 10.9996C9.55697 10.9996 10.4991 11.9417 10.4991 13.0995C10.4991 14.2574 9.55691 15.1995 8.39916 15.1995Z" fill="white"/>
<path d="M18.1001 15.2002C13.0826 15.2002 9.00024 19.2825 9.00024 24.3001C9.00024 24.6864 9.31386 25.0001 9.70026 25.0001C10.0867 25.0001 10.4003 24.6864 10.4003 24.3001C10.4003 20.0539 13.854 16.6002 18.1001 16.6002C22.3463 16.6002 25.8 20.0539 25.8 24.3001C25.8 24.6864 26.1136 25.0001 26.5 25.0001C26.8864 25.0001 27.2 24.6864 27.2 24.3001C27.2 19.2825 23.1177 15.2002 18.1001 15.2002Z" fill="white"/>
<path d="M11.5619 18.9086C10.5805 18.315 9.45214 18 8.29991 18C4.82656 18 2 20.8266 2 24.2999C2 24.6863 2.31362 24.9999 2.70001 24.9999C3.08641 24.9999 3.40002 24.6863 3.40002 24.2999C3.39996 21.5979 5.59797 19.4 8.29991 19.4C9.19732 19.4 10.0737 19.6436 10.8353 20.1055C11.1643 20.3058 11.5955 20.2008 11.7971 19.8704C11.9987 19.5399 11.8922 19.1102 11.5619 18.9086Z" fill="white"/>
</svg>
