<svg width="30" height="30" viewBox="0 0 30 30" fill="none" xmlns="http://www.w3.org/2000/svg">
<path d="M25.9136 23.9229L24.4033 19.5274C25.1297 18.059 25.5139 16.4223 25.5165 14.7754C25.5209 11.9393 24.4236 9.25766 22.4266 7.22454C20.4294 5.19103 17.7679 4.04642 14.9326 4.00143C13.4471 3.97759 12.0057 4.2513 10.6462 4.81406C9.33488 5.35689 8.15895 6.14318 7.15107 7.15106C6.14314 8.15894 5.35685 9.33488 4.81407 10.6462C4.2513 12.0057 3.97789 13.4479 4.0014 14.9326C4.0463 17.7679 5.19095 20.4294 7.22446 22.4267C9.25363 24.4197 11.9284 25.5167 14.7583 25.5166C14.7638 25.5166 14.7697 25.5166 14.7752 25.5166C16.4221 25.514 18.0589 25.1299 19.5273 24.4034L23.9228 25.9137C24.0918 25.9718 24.2651 26.0002 24.4364 26.0002C24.8435 26.0002 25.2395 25.8402 25.5398 25.5399C25.9664 25.1132 26.1097 24.4936 25.9136 23.9229ZM24.6175 24.6176C24.5742 24.6609 24.4815 24.7265 24.3466 24.6802L19.689 23.0798C19.6201 23.0561 19.5485 23.0444 19.4771 23.0444C19.3718 23.0444 19.267 23.0698 19.1721 23.1201C17.826 23.8322 16.3049 24.2099 14.7732 24.2122C9.63622 24.2205 5.38693 20.0481 5.30555 14.912C5.2646 12.3278 6.24756 9.89919 8.07336 8.07339C9.89915 6.24764 12.3271 5.26485 14.9119 5.30572C20.048 5.38714 24.2201 9.63433 24.2121 14.7733C24.2097 16.3051 23.832 17.8262 23.1199 19.1722C23.0356 19.3315 23.0211 19.5187 23.0796 19.6891L24.6801 24.3467C24.7264 24.4816 24.6608 24.5744 24.6175 24.6176Z" fill="white"/>
<path d="M14.6528 19.5869C14.3116 19.5869 13.9848 19.8869 14.0006 20.2391C14.0164 20.5924 14.2871 20.8913 14.6528 20.8913C14.9939 20.8913 15.3207 20.5913 15.305 20.2391C15.2891 19.8857 15.0184 19.5869 14.6528 19.5869Z" fill="white"/>
<path d="M14.6523 9.48633C12.8631 9.48633 11.4074 10.9419 11.4074 12.7311C11.4074 13.0913 11.6995 13.3833 12.0596 13.3833C12.4198 13.3833 12.7118 13.0913 12.7118 12.7311C12.7118 11.6612 13.5823 10.7907 14.6523 10.7907C15.7222 10.7907 16.5927 11.6612 16.5927 12.7311C16.5927 13.8011 15.7222 14.6716 14.6523 14.6716C14.2921 14.6716 14.0001 14.9636 14.0001 15.3238V17.9838C14.0001 18.3439 14.2921 18.6359 14.6523 18.6359C15.0124 18.6359 15.3044 18.344 15.3044 17.9837V15.9101C16.7821 15.6073 17.8971 14.297 17.8971 12.7311C17.8971 10.9419 16.4414 9.48633 14.6523 9.48633Z" fill="white"/>
</svg>
