<svg width="30" height="30" viewBox="0 0 30 30" fill="none" xmlns="http://www.w3.org/2000/svg">
<path d="M22.4525 4H16.3142H9.83429C8.27536 4.00287 7.01027 5.26202 7 6.82094V23.5971C7.01027 25.1561 8.27536 26.4152 9.83429 26.4181H22.4605C22.8071 26.4232 23.1415 26.2897 23.3892 26.0471C23.6256 25.8043 23.7578 25.4787 23.7575 25.1397V5.30505C23.756 4.58487 23.1726 4.00147 22.4525 4ZM16.8533 5.06753H19.9891V10.0742L18.8762 8.29947C18.8311 8.22434 18.7683 8.16142 18.6932 8.11639C18.4404 7.96473 18.1125 8.04666 17.9608 8.29947L16.8533 10.0662V5.06753ZM8.08087 6.82094C8.08528 5.85436 8.86771 5.07193 9.83429 5.06753H15.7858V10.5119C15.7657 10.9453 16.0378 11.3386 16.4503 11.4727C16.92 11.6141 17.3417 11.3099 17.5925 10.9096L18.4225 9.57516L19.2525 10.9096C19.5007 11.3046 19.9224 11.6088 20.4055 11.4727C20.8161 11.3391 21.0876 10.9487 21.07 10.5173V5.08087H22.4605C22.5837 5.08234 22.6832 5.18182 22.6847 5.30505V20.7839C22.6106 20.7713 22.5356 20.7651 22.4605 20.7655H9.83429C9.19757 20.7653 8.57954 20.9808 8.08087 21.3767V6.82094ZM22.6847 23.0687L10.3787 23.0821C10.084 23.0821 9.84496 23.3211 9.84496 23.6158C9.84496 23.9106 10.084 24.1496 10.3787 24.1496L22.6847 24.1362V25.129C22.6852 25.1888 22.6622 25.2463 22.6206 25.2892C22.5778 25.3307 22.5202 25.3538 22.4605 25.3532H9.83429C8.86517 25.3532 8.07954 24.5676 8.07954 23.5985C8.07954 22.6294 8.86517 21.8437 9.83429 21.8437H22.4605C22.5837 21.8452 22.6832 21.9447 22.6847 22.0679V23.0687Z" fill="white"/>
</svg>
