<svg width="30" height="30" viewBox="0 0 30 30" fill="none" xmlns="http://www.w3.org/2000/svg">
<path fill-rule="evenodd" clip-rule="evenodd" d="M15.1049 3.19732L14.7069 3.5L14.309 3.19732C14.4035 3.07299 14.5507 3 14.7069 3C14.8631 3 15.0104 3.07299 15.1049 3.19732ZM14.7069 21.5C14.3158 21.8114 14.3157 21.8113 14.3156 21.8112L14.3146 21.81L14.3121 21.8068L14.303 21.7952L14.2689 21.7517C14.2395 21.7138 14.1968 21.6584 14.1427 21.587C14.0345 21.4441 13.8806 21.2369 13.6958 20.9772C13.3266 20.4582 12.8325 19.727 12.3329 18.8782C11.3467 17.2026 10.2886 14.9857 10.2074 13.0207C10.1182 10.863 11.18 8.38342 12.2056 6.50241C12.7253 5.54926 13.2495 4.72526 13.6438 4.13958C13.8411 3.84648 14.0062 3.6124 14.1226 3.45093C14.1808 3.37018 14.2268 3.30754 14.2585 3.26472L14.2952 3.21554L14.3051 3.20248L14.309 3.19732C14.3091 3.19721 14.309 3.19732 14.7069 3.5C15.1049 3.19732 15.1048 3.19721 15.1049 3.19732L15.1061 3.1989L15.1088 3.20248L15.1187 3.21554L15.1553 3.26472C15.1871 3.30754 15.2331 3.37018 15.2913 3.45093C15.4076 3.6124 15.5728 3.84648 15.7701 4.13958C16.1643 4.72526 16.6886 5.54926 17.2083 6.50241C18.2339 8.38342 19.2957 10.863 19.2065 13.0207C19.1253 14.9857 18.0672 17.2026 17.081 18.8782C16.5814 19.727 16.0873 20.4582 15.7181 20.9772C15.5333 21.2369 15.3794 21.4441 15.2712 21.587C15.2171 21.6584 15.1744 21.7138 15.1449 21.7517L15.1109 21.7952L15.1018 21.8068L15.0993 21.81L15.0985 21.8109C15.0984 21.811 15.0981 21.8114 14.7069 21.5ZM14.7069 21.5L14.3156 21.8112C14.4105 21.9304 14.5546 22 14.7069 22C14.8593 22 15.0037 21.9301 15.0985 21.8109L14.7069 21.5ZM14.7069 20.6698C14.767 20.5876 14.8327 20.4966 14.9032 20.3975C15.2603 19.8955 15.7377 19.189 16.2192 18.3709C17.1951 16.7129 18.1371 14.6798 18.2074 12.9793C18.2845 11.115 17.3463 8.84459 16.3303 6.9811C15.8292 6.06199 15.3223 5.26512 14.9405 4.69798C14.856 4.57233 14.7776 4.45809 14.7069 4.35644C14.6363 4.45809 14.5579 4.57233 14.4733 4.69798C14.0916 5.26512 13.5847 6.06199 13.0836 6.9811C12.0676 8.84459 11.1294 11.115 11.2065 12.9793C11.2768 14.6798 12.2188 16.7129 13.1947 18.3709C13.6761 19.189 14.1536 19.8955 14.5107 20.3975C14.5812 20.4966 14.6469 20.5876 14.7069 20.6698Z" fill="white"/>
<path fill-rule="evenodd" clip-rule="evenodd" d="M27.5857 8.7361L27.0891 8.6775L27.013 8.18333C27.1673 8.15954 27.324 8.20927 27.4364 8.31774C27.5487 8.42621 27.604 8.58098 27.5857 8.7361ZM14.7856 21.462C14.524 21.8881 14.5244 21.8883 14.5248 21.8885L14.5272 21.89L14.5305 21.892L14.5373 21.896L14.552 21.9041C14.5622 21.9096 14.5733 21.9151 14.5852 21.9206C14.6092 21.9317 14.6366 21.9427 14.6678 21.953C14.7301 21.9736 14.8067 21.9913 14.8999 22.0022C15.0855 22.0238 15.3395 22.0185 15.687 21.9534C16.6259 21.7777 18.0995 21.4534 19.596 20.9296C21.0814 20.4096 22.6431 19.6749 23.7148 18.6526C25.2775 17.1621 26.2354 14.6406 26.8038 12.5749C27.0918 11.5282 27.2868 10.5712 27.4099 9.87603C27.4715 9.52813 27.5152 9.24499 27.5437 9.04801C27.5579 8.9495 27.5683 8.87248 27.5752 8.81961L27.5829 8.75876L27.5849 8.74253L27.5854 8.73807L27.5857 8.7361C27.5857 8.73596 27.5857 8.7361 27.0891 8.6775C27.013 8.18333 27.0131 8.18332 27.013 8.18333L27.0114 8.18358L27.008 8.18411L26.9957 8.18606L26.9496 8.19354C26.9096 8.20013 26.8513 8.20997 26.7765 8.2232C26.6268 8.24966 26.4107 8.28971 26.1423 8.34452C25.6057 8.45409 24.858 8.62302 24.0113 8.86096C22.3291 9.33372 20.2114 10.091 18.5905 11.2241L19.1635 12.0437C20.6453 11.0078 22.6337 10.2868 24.2819 9.82366C25.1004 9.59362 25.824 9.43015 26.3423 9.32431C26.3952 9.31351 26.4459 9.30332 26.4944 9.29372C26.4746 9.41595 26.4516 9.55256 26.4252 9.7017C26.3061 10.3749 26.1174 11.3003 25.8396 12.3096C25.2765 14.356 24.3748 16.6411 23.0246 17.929C22.1081 18.8033 20.7078 19.4809 19.2656 19.9858C17.8579 20.4785 16.4614 20.7895 15.5483 20.962L14.7856 20.962C14.5618 20.962 14.3653 21.1107 14.3044 21.326C14.2436 21.5414 14.3341 21.7714 14.5248 21.8885L14.7856 21.462Z" fill="white"/>
<path fill-rule="evenodd" clip-rule="evenodd" d="M2.092 8.7361L2.58855 8.6775L2.6647 8.18333C2.51033 8.15954 2.3537 8.20927 2.24132 8.31774C2.12893 8.42621 2.07369 8.58098 2.092 8.7361ZM14.8921 21.462C15.1537 21.8881 15.1533 21.8883 15.1529 21.8885L15.1505 21.89L15.1472 21.892L15.1404 21.896L15.1257 21.9041C15.1155 21.9096 15.1044 21.9151 15.0924 21.9206C15.0685 21.9317 15.041 21.9427 15.0099 21.953C14.9475 21.9736 14.871 21.9913 14.7778 22.0022C14.5922 22.0238 14.3382 22.0185 13.9907 21.9534C13.0517 21.7777 11.5782 21.4534 10.0817 20.9296C8.59625 20.4096 7.03454 19.6749 5.96283 18.6526C4.4002 17.1621 3.44225 14.6406 2.87386 12.5749C2.58585 11.5282 2.39083 10.5712 2.26775 9.87603C2.20616 9.52813 2.16244 9.24499 2.13402 9.04801C2.11981 8.9495 2.10942 8.87248 2.10252 8.81961L2.09476 8.75876L2.09277 8.74253L2.09223 8.73807L2.092 8.7361C2.09198 8.73596 2.092 8.7361 2.58855 8.6775C2.6647 8.18333 2.66459 8.18332 2.6647 8.18333L2.66626 8.18358L2.66968 8.18411L2.682 8.18606L2.72805 8.19354C2.76803 8.20013 2.82633 8.20997 2.90118 8.2232C3.05088 8.24966 3.26694 8.28971 3.5354 8.34452C4.07201 8.45409 4.81972 8.62302 5.66636 8.86096C7.34861 9.33372 9.4663 10.091 11.0872 11.2241L10.5142 12.0437C9.03233 11.0078 7.04395 10.2868 5.39581 9.82366C4.57726 9.59362 3.85371 9.43015 3.33534 9.32431C3.28248 9.31351 3.23176 9.30332 3.18332 9.29372C3.20307 9.41595 3.22603 9.55256 3.25244 9.7017C3.37162 10.3749 3.5603 11.3003 3.83803 12.3096C4.40112 14.356 5.30287 16.6411 6.65305 17.929C7.56959 18.8033 8.96992 19.4809 10.4121 19.9858C11.8197 20.4785 13.2163 20.7895 14.1293 20.962L14.8921 20.962C15.1159 20.962 15.3124 21.1107 15.3732 21.326C15.4341 21.5414 15.3436 21.7714 15.1529 21.8885L14.8921 21.462Z" fill="white"/>
<path fill-rule="evenodd" clip-rule="evenodd" d="M1.71654 21.6711L2.01561 21.2704L1.5866 21.0136C1.45487 21.2336 1.511 21.5177 1.71654 21.6711ZM2.74387 21.1657C2.87778 21.0254 3.06124 20.8525 3.30361 20.6617C3.96716 20.1392 5.08026 19.476 6.84182 18.9818L6.57173 18.019C4.68823 18.5473 3.45574 19.2691 2.68498 19.876C2.30021 20.1789 2.03246 20.4517 1.85734 20.6549C1.76982 20.7564 1.70556 20.8403 1.66146 20.9018C1.63941 20.9325 1.6224 20.9576 1.61006 20.9764C1.60388 20.9858 1.59888 20.9937 1.59498 20.9999L1.58998 21.008L1.58809 21.0111L1.5873 21.0124L1.5866 21.0136C1.58644 21.0138 1.5866 21.0136 2.01561 21.2704C1.71654 21.6711 1.7164 21.671 1.71654 21.6711L1.71814 21.6723L1.72132 21.6746L1.73235 21.6827L1.77275 21.7121C1.8077 21.7373 1.85849 21.7734 1.92401 21.8187C2.055 21.9094 2.24504 22.0373 2.48506 22.1885C2.96456 22.4906 3.64633 22.8881 4.45737 23.2703C6.06494 24.0279 8.24541 24.7568 10.3829 24.4952C11.7982 24.3219 12.8432 23.9845 13.7283 23.5214C14.6065 23.062 15.3077 22.4883 16.0283 21.8831L15.3852 21.1173C14.664 21.7229 14.0365 22.2316 13.2648 22.6354C12.4999 23.0355 11.5734 23.342 10.2614 23.5026C8.40323 23.73 6.43044 23.0947 4.88366 22.3657C4.11752 22.0047 3.47184 21.6283 3.01818 21.3425C2.91673 21.2785 2.82502 21.2192 2.74387 21.1657Z" fill="white"/>
<path fill-rule="evenodd" clip-rule="evenodd" d="M27.9807 21.6711L27.6816 21.2704L28.1106 21.0136C28.2423 21.2336 28.1862 21.5177 27.9807 21.6711ZM26.9533 21.1657C26.8194 21.0254 26.636 20.8525 26.3936 20.6617C25.73 20.1392 24.6169 19.476 22.8554 18.9818L23.1255 18.019C25.009 18.5473 26.2415 19.2691 27.0122 19.876C27.397 20.1789 27.6647 20.4517 27.8399 20.6549C27.9274 20.7564 27.9916 20.8403 28.0357 20.9018C28.0578 20.9325 28.0748 20.9576 28.0871 20.9764C28.0933 20.9858 28.0983 20.9937 28.1022 20.9999L28.1072 21.008L28.1091 21.0111L28.1099 21.0124L28.1106 21.0136C28.1108 21.0138 28.1106 21.0136 27.6816 21.2704C27.9807 21.6711 27.9808 21.671 27.9807 21.6711L27.9791 21.6723L27.9759 21.6746L27.9649 21.6827L27.9245 21.7121C27.8895 21.7373 27.8387 21.7734 27.7732 21.8187C27.6422 21.9094 27.4522 22.0373 27.2121 22.1885C26.7326 22.4906 26.0509 22.8881 25.2398 23.2703C23.6323 24.0279 21.4518 24.7568 19.3143 24.4952C17.899 24.3219 16.854 23.9845 15.9689 23.5214C15.0907 23.062 14.3896 22.4883 13.6689 21.8831L14.312 21.1173C15.0332 21.7229 15.6607 22.2316 16.4325 22.6354C17.1973 23.0355 18.1238 23.342 19.4358 23.5026C21.294 23.73 23.2668 23.0947 24.8135 22.3657C25.5797 22.0047 26.2254 21.6283 26.679 21.3425C26.7805 21.2785 26.8722 21.2192 26.9533 21.1657Z" fill="white"/>
<path fill-rule="evenodd" clip-rule="evenodd" d="M11.8169 23.8123L12.5977 23.1875L12.6028 23.1939L12.619 23.214L12.6819 23.2916C12.7365 23.3587 12.8154 23.4549 12.9117 23.5704C13.1045 23.8019 13.3658 24.1092 13.6414 24.4154C13.9188 24.7237 14.2027 25.0217 14.442 25.2393C14.5486 25.3362 14.6377 25.4091 14.7072 25.4583C14.7767 25.4091 14.8658 25.3362 14.9725 25.2393C15.2118 25.0217 15.4956 24.7237 15.7731 24.4154C16.0487 24.1092 16.3099 23.8019 16.5028 23.5704C16.5991 23.4549 16.678 23.3587 16.7326 23.2916L16.7955 23.214L16.8117 23.1939L16.8166 23.1878L17.5976 23.8123L17.5913 23.8202L17.5738 23.8419L17.508 23.923C17.4514 23.9926 17.3701 24.0917 17.271 24.2106C17.0733 24.4479 16.8033 24.7656 16.5164 25.0843C16.2313 25.4011 15.9214 25.7281 15.6451 25.9792C15.508 26.1039 15.3679 26.2203 15.2356 26.3085C15.1693 26.3526 15.0953 26.3963 15.0171 26.4303C14.9439 26.4621 14.8349 26.4999 14.7072 26.4999C14.5796 26.4999 14.4706 26.4621 14.3974 26.4303C14.3191 26.3963 14.2451 26.3526 14.1789 26.3085C14.0466 26.2203 13.9065 26.1039 13.7693 25.9792C13.4931 25.7281 13.1831 25.4011 12.8981 25.0843C12.6112 24.7656 12.3412 24.4479 12.1434 24.2106C12.0444 24.0917 11.9631 23.9926 11.9064 23.923L11.8407 23.8419L11.8232 23.8202L11.8169 23.8123ZM14.6183 25.5133C14.6151 25.5145 14.6154 25.5145 14.6183 25.5133V25.5133Z" fill="white"/>
</svg>
