<svg width="30" height="30" viewBox="0 0 30 30" fill="none" xmlns="http://www.w3.org/2000/svg">
<g clip-path="url(#clip0)">
<path d="M15.24 4C12.8151 4 10.8418 6.05155 10.8418 8.57275V15.2401C10.8418 17.7617 12.8151 19.8128 15.24 19.8128C17.6649 19.8128 19.6383 17.7617 19.6383 15.2401V8.57275C19.6383 6.05155 17.6649 4 15.24 4ZM15.24 18.8354C13.512 18.8354 12.0826 17.4802 11.8543 15.7288H18.6252C18.3975 17.4807 16.9681 18.8354 15.24 18.8354ZM18.6609 14.7514H11.8191V8.57275C11.8191 6.5901 13.3537 4.9774 15.24 4.9774C17.1264 4.9774 18.6609 6.5901 18.6609 8.57275V14.7514Z" fill="white"/>
<path d="M22.0817 12.7964C21.8119 12.7964 21.593 13.0153 21.593 13.2851V15.2399C21.593 18.7429 18.7429 21.5929 15.2399 21.5929C11.7369 21.5929 8.88686 18.7429 8.88686 15.2399V13.2851C8.88686 13.0153 8.66792 12.7964 8.39816 12.7964C8.1284 12.7964 7.90946 13.0153 7.90946 13.2851V15.2399C7.90946 19.1167 10.9369 22.2923 14.7512 22.5454V25.5025H12.3077C12.038 25.5025 11.819 25.7215 11.819 25.9912C11.819 26.261 12.038 26.4799 12.3077 26.4799H18.1721C18.4419 26.4799 18.6608 26.261 18.6608 25.9912C18.6608 25.7215 18.4419 25.5025 18.1721 25.5025H15.7286V22.5454C19.5429 22.2923 22.5704 19.1167 22.5704 15.2399V13.2851C22.5704 13.0153 22.3515 12.7964 22.0817 12.7964Z" fill="white"/>
</g>
<defs>
<clipPath id="clip0">
<rect width="22.4801" height="22.4801" fill="white" transform="translate(4 4)"/>
</clipPath>
</defs>
</svg>
