<svg width="14" height="18" viewBox="0 0 14 18" fill="none" xmlns="http://www.w3.org/2000/svg">
<path d="M2.83374 17.3337C2.37262 17.3337 2 16.9611 2 16.5V1.5C2 1.0401 2.37384 0.66626 2.83374 0.66626C3.29364 0.66626 3.66626 1.0401 3.66626 1.5V16.5C3.66626 16.9611 3.29364 17.3337 2.83374 17.3337Z" fill="#1D1D1D"/>
<path d="M8.45776 9.41626H3.0415C2.5816 9.41626 2.20776 9.04364 2.20776 8.58252C2.20776 8.12262 2.5816 7.74878 3.0415 7.74878H8.45776C9.9516 7.74878 11.1665 6.53387 11.1665 5.04004C11.1665 3.5462 9.9516 2.3313 8.45776 2.3313H1.1665C0.706604 2.3313 0.332764 1.95868 0.332764 1.49756C0.332764 1.03735 0.706604 0.663818 1.1665 0.663818H8.45776C10.8702 0.663818 12.8328 2.6261 12.8328 5.03882C12.8328 7.45123 10.8702 9.41626 8.45776 9.41626Z" fill="#1D1D1D"/>
<path d="M8.87476 17.3337H1.16602C0.706116 17.3337 0.332275 16.9611 0.332275 16.5C0.332275 16.0401 0.706116 15.6663 1.16602 15.6663H8.87476C10.5984 15.6663 11.9998 14.2637 11.9998 12.5413C11.9998 10.8188 10.5984 9.41626 8.87476 9.41626H3.04102C2.58112 9.41626 2.20728 9.04364 2.20728 8.58252C2.20728 8.12262 2.58112 7.74878 3.04102 7.74878H8.87476C11.5173 7.74878 13.666 9.89752 13.666 12.54C13.666 15.1826 11.5173 17.3337 8.87476 17.3337Z" fill="#1D1D1D"/>
</svg>
