<svg width="110" height="110" viewBox="0 0 110 110" fill="none" xmlns="http://www.w3.org/2000/svg">
<path d="M0 55C0 85.3757 24.6243 110 55 110C85.3757 110 110 85.3757 110 55C110 24.6243 85.3757 0 55 0C24.6243 0 0 24.6243 0 55ZM99.1232 55C99.1232 79.3685 79.3685 99.1232 55 99.1232C30.6315 99.1232 10.8768 79.3685 10.8768 55C10.8768 30.6315 30.6315 10.8768 55 10.8768C79.3685 10.8768 99.1232 30.6315 99.1232 55Z" fill="#373737" fill-opacity="0.05"/>
<path d="M55 5.49753C55 2.48506 57.4482 -0.0280647 60.4459 0.270142C72.4207 1.46139 83.7316 6.5569 92.5895 14.8499C102.781 24.3911 108.962 37.4506 109.881 51.3807C110.799 65.3109 106.386 79.0691 97.5366 89.8659C88.6868 100.663 76.0623 107.69 62.2229 109.524C48.3834 111.357 34.3646 107.859 23.0087 99.7388C11.6529 91.6186 3.80988 79.484 1.06981 65.7951C-1.67027 52.1063 0.897682 37.8877 8.253 26.0221C14.6461 15.7088 24.2401 7.84396 35.4917 3.57587C38.3083 2.50743 41.3265 4.29642 42.1108 7.20498C42.8952 10.1135 41.1662 13.1175 38.3769 14.2554C29.8129 17.7492 22.52 23.8753 17.5982 31.8151C11.7133 41.3086 9.65869 52.6848 11.851 63.6371C14.0433 74.5894 20.3184 84.2982 29.4041 90.7951C38.4898 97.2919 49.7061 100.091 60.7789 98.6238C71.8518 97.157 81.9525 91.5344 89.0331 82.8959C96.1138 74.2574 99.6446 63.2496 98.9096 52.1043C98.1746 40.9589 93.2288 30.5101 85.075 22.8763C78.2556 16.4919 69.6192 12.476 60.4409 11.3326C57.4515 10.9602 55 8.50999 55 5.49753Z" fill="#77BDF0"/>
</svg>
