<svg width="54" height="80" viewBox="0 0 54 80" fill="none" xmlns="http://www.w3.org/2000/svg">
<mask id="path-1-outside-1" maskUnits="userSpaceOnUse" x="14" y="27" width="26" height="26" fill="black">
<rect fill="white" x="14" y="27" width="26" height="26"/>
<path d="M28.12 52H25.88C25.123 52 24.484 51.433 24.394 50.68L24.155 48.804C23.678 48.649 23.218 48.458 22.781 48.235L21.287 49.396C20.681 49.865 19.828 49.811 19.302 49.27L17.727 47.695C17.19 47.174 17.136 46.321 17.605 45.716L18.766 44.221C18.542 43.784 18.351 43.324 18.197 42.847L16.317 42.608C15.567 42.516 15 41.877 15 41.12V38.88C15 38.123 15.567 37.484 16.32 37.394L18.196 37.155C18.351 36.678 18.542 36.218 18.765 35.781L17.605 34.287C17.135 33.681 17.19 32.827 17.732 32.301L19.307 30.726C19.828 30.189 20.682 30.136 21.286 30.604L22.78 31.766C23.217 31.543 23.677 31.352 24.155 31.197L24.394 29.317C24.484 28.567 25.123 28 25.88 28H28.12C28.877 28 29.516 28.567 29.606 29.32L29.845 31.196C30.323 31.351 30.783 31.542 31.22 31.765L32.714 30.604C33.321 30.135 34.173 30.189 34.699 30.731L36.274 32.306C36.811 32.827 36.865 33.68 36.396 34.285L35.235 35.78C35.459 36.217 35.65 36.677 35.804 37.154L37.684 37.393C38.433 37.484 39 38.123 39 38.88V41.12C39 41.877 38.433 42.516 37.68 42.606L35.804 42.845C35.649 43.322 35.458 43.782 35.235 44.219L36.396 45.713C36.866 46.319 36.811 47.172 36.269 47.698L34.694 49.273C34.173 49.81 33.319 49.865 32.715 49.395L31.22 48.234C30.783 48.458 30.323 48.649 29.846 48.803L29.607 50.683C29.516 51.433 28.877 52 28.12 52ZM22.73 47.14C22.813 47.14 22.898 47.161 22.974 47.203C23.525 47.511 24.122 47.759 24.748 47.939C24.94 47.994 25.081 48.158 25.106 48.356L25.386 50.556C25.416 50.807 25.633 51 25.88 51H28.12C28.367 51 28.584 50.807 28.613 50.561L28.894 48.357C28.919 48.159 29.06 47.995 29.252 47.94C29.878 47.76 30.475 47.512 31.026 47.204C31.201 47.106 31.419 47.123 31.576 47.246L33.326 48.606C33.527 48.762 33.809 48.749 33.981 48.572L35.566 46.987C35.747 46.811 35.761 46.529 35.605 46.327L34.245 44.577C34.122 44.419 34.105 44.202 34.203 44.027C34.511 43.476 34.759 42.879 34.939 42.253C34.994 42.061 35.158 41.92 35.356 41.895L37.556 41.615C37.807 41.584 38 41.367 38 41.12V38.88C38 38.633 37.807 38.416 37.561 38.387L35.357 38.106C35.159 38.081 34.995 37.94 34.94 37.748C34.76 37.122 34.512 36.525 34.204 35.974C34.106 35.799 34.122 35.582 34.246 35.424L35.606 33.674C35.763 33.472 35.749 33.19 35.573 33.02L33.988 31.435C33.813 31.253 33.53 31.239 33.328 31.396L31.578 32.756C31.419 32.879 31.202 32.896 31.027 32.798C30.478 32.49 29.881 32.243 29.253 32.062C29.061 32.007 28.92 31.843 28.895 31.645L28.615 29.445C28.584 29.193 28.367 29 28.12 29H25.88C25.633 29 25.416 29.193 25.387 29.439L25.106 31.643C25.081 31.841 24.94 32.005 24.748 32.061C24.12 32.241 23.523 32.489 22.974 32.796C22.799 32.895 22.582 32.877 22.423 32.755L20.673 31.395C20.471 31.238 20.19 31.252 20.019 31.428L18.434 33.014C18.253 33.19 18.239 33.472 18.395 33.674L19.755 35.424C19.878 35.582 19.895 35.799 19.797 35.974C19.488 36.525 19.241 37.122 19.061 37.748C19.006 37.94 18.842 38.081 18.644 38.106L16.444 38.386C16.193 38.416 16 38.633 16 38.88V41.12C16 41.367 16.193 41.584 16.439 41.613L18.643 41.894C18.841 41.919 19.005 42.06 19.06 42.252C19.24 42.878 19.488 43.475 19.796 44.026C19.894 44.201 19.878 44.418 19.754 44.576L18.394 46.326C18.237 46.528 18.251 46.81 18.427 46.98L20.012 48.565C20.187 48.746 20.468 48.76 20.672 48.604L22.422 47.244C22.513 47.176 22.621 47.14 22.73 47.14Z"/>
</mask>
<path d="M28.12 52H25.88C25.123 52 24.484 51.433 24.394 50.68L24.155 48.804C23.678 48.649 23.218 48.458 22.781 48.235L21.287 49.396C20.681 49.865 19.828 49.811 19.302 49.27L17.727 47.695C17.19 47.174 17.136 46.321 17.605 45.716L18.766 44.221C18.542 43.784 18.351 43.324 18.197 42.847L16.317 42.608C15.567 42.516 15 41.877 15 41.12V38.88C15 38.123 15.567 37.484 16.32 37.394L18.196 37.155C18.351 36.678 18.542 36.218 18.765 35.781L17.605 34.287C17.135 33.681 17.19 32.827 17.732 32.301L19.307 30.726C19.828 30.189 20.682 30.136 21.286 30.604L22.78 31.766C23.217 31.543 23.677 31.352 24.155 31.197L24.394 29.317C24.484 28.567 25.123 28 25.88 28H28.12C28.877 28 29.516 28.567 29.606 29.32L29.845 31.196C30.323 31.351 30.783 31.542 31.22 31.765L32.714 30.604C33.321 30.135 34.173 30.189 34.699 30.731L36.274 32.306C36.811 32.827 36.865 33.68 36.396 34.285L35.235 35.78C35.459 36.217 35.65 36.677 35.804 37.154L37.684 37.393C38.433 37.484 39 38.123 39 38.88V41.12C39 41.877 38.433 42.516 37.68 42.606L35.804 42.845C35.649 43.322 35.458 43.782 35.235 44.219L36.396 45.713C36.866 46.319 36.811 47.172 36.269 47.698L34.694 49.273C34.173 49.81 33.319 49.865 32.715 49.395L31.22 48.234C30.783 48.458 30.323 48.649 29.846 48.803L29.607 50.683C29.516 51.433 28.877 52 28.12 52ZM22.73 47.14C22.813 47.14 22.898 47.161 22.974 47.203C23.525 47.511 24.122 47.759 24.748 47.939C24.94 47.994 25.081 48.158 25.106 48.356L25.386 50.556C25.416 50.807 25.633 51 25.88 51H28.12C28.367 51 28.584 50.807 28.613 50.561L28.894 48.357C28.919 48.159 29.06 47.995 29.252 47.94C29.878 47.76 30.475 47.512 31.026 47.204C31.201 47.106 31.419 47.123 31.576 47.246L33.326 48.606C33.527 48.762 33.809 48.749 33.981 48.572L35.566 46.987C35.747 46.811 35.761 46.529 35.605 46.327L34.245 44.577C34.122 44.419 34.105 44.202 34.203 44.027C34.511 43.476 34.759 42.879 34.939 42.253C34.994 42.061 35.158 41.92 35.356 41.895L37.556 41.615C37.807 41.584 38 41.367 38 41.12V38.88C38 38.633 37.807 38.416 37.561 38.387L35.357 38.106C35.159 38.081 34.995 37.94 34.94 37.748C34.76 37.122 34.512 36.525 34.204 35.974C34.106 35.799 34.122 35.582 34.246 35.424L35.606 33.674C35.763 33.472 35.749 33.19 35.573 33.02L33.988 31.435C33.813 31.253 33.53 31.239 33.328 31.396L31.578 32.756C31.419 32.879 31.202 32.896 31.027 32.798C30.478 32.49 29.881 32.243 29.253 32.062C29.061 32.007 28.92 31.843 28.895 31.645L28.615 29.445C28.584 29.193 28.367 29 28.12 29H25.88C25.633 29 25.416 29.193 25.387 29.439L25.106 31.643C25.081 31.841 24.94 32.005 24.748 32.061C24.12 32.241 23.523 32.489 22.974 32.796C22.799 32.895 22.582 32.877 22.423 32.755L20.673 31.395C20.471 31.238 20.19 31.252 20.019 31.428L18.434 33.014C18.253 33.19 18.239 33.472 18.395 33.674L19.755 35.424C19.878 35.582 19.895 35.799 19.797 35.974C19.488 36.525 19.241 37.122 19.061 37.748C19.006 37.94 18.842 38.081 18.644 38.106L16.444 38.386C16.193 38.416 16 38.633 16 38.88V41.12C16 41.367 16.193 41.584 16.439 41.613L18.643 41.894C18.841 41.919 19.005 42.06 19.06 42.252C19.24 42.878 19.488 43.475 19.796 44.026C19.894 44.201 19.878 44.418 19.754 44.576L18.394 46.326C18.237 46.528 18.251 46.81 18.427 46.98L20.012 48.565C20.187 48.746 20.468 48.76 20.672 48.604L22.422 47.244C22.513 47.176 22.621 47.14 22.73 47.14Z" fill="#1D1D1D"/>
<path d="M28.12 52H25.88C25.123 52 24.484 51.433 24.394 50.68L24.155 48.804C23.678 48.649 23.218 48.458 22.781 48.235L21.287 49.396C20.681 49.865 19.828 49.811 19.302 49.27L17.727 47.695C17.19 47.174 17.136 46.321 17.605 45.716L18.766 44.221C18.542 43.784 18.351 43.324 18.197 42.847L16.317 42.608C15.567 42.516 15 41.877 15 41.12V38.88C15 38.123 15.567 37.484 16.32 37.394L18.196 37.155C18.351 36.678 18.542 36.218 18.765 35.781L17.605 34.287C17.135 33.681 17.19 32.827 17.732 32.301L19.307 30.726C19.828 30.189 20.682 30.136 21.286 30.604L22.78 31.766C23.217 31.543 23.677 31.352 24.155 31.197L24.394 29.317C24.484 28.567 25.123 28 25.88 28H28.12C28.877 28 29.516 28.567 29.606 29.32L29.845 31.196C30.323 31.351 30.783 31.542 31.22 31.765L32.714 30.604C33.321 30.135 34.173 30.189 34.699 30.731L36.274 32.306C36.811 32.827 36.865 33.68 36.396 34.285L35.235 35.78C35.459 36.217 35.65 36.677 35.804 37.154L37.684 37.393C38.433 37.484 39 38.123 39 38.88V41.12C39 41.877 38.433 42.516 37.68 42.606L35.804 42.845C35.649 43.322 35.458 43.782 35.235 44.219L36.396 45.713C36.866 46.319 36.811 47.172 36.269 47.698L34.694 49.273C34.173 49.81 33.319 49.865 32.715 49.395L31.22 48.234C30.783 48.458 30.323 48.649 29.846 48.803L29.607 50.683C29.516 51.433 28.877 52 28.12 52ZM22.73 47.14C22.813 47.14 22.898 47.161 22.974 47.203C23.525 47.511 24.122 47.759 24.748 47.939C24.94 47.994 25.081 48.158 25.106 48.356L25.386 50.556C25.416 50.807 25.633 51 25.88 51H28.12C28.367 51 28.584 50.807 28.613 50.561L28.894 48.357C28.919 48.159 29.06 47.995 29.252 47.94C29.878 47.76 30.475 47.512 31.026 47.204C31.201 47.106 31.419 47.123 31.576 47.246L33.326 48.606C33.527 48.762 33.809 48.749 33.981 48.572L35.566 46.987C35.747 46.811 35.761 46.529 35.605 46.327L34.245 44.577C34.122 44.419 34.105 44.202 34.203 44.027C34.511 43.476 34.759 42.879 34.939 42.253C34.994 42.061 35.158 41.92 35.356 41.895L37.556 41.615C37.807 41.584 38 41.367 38 41.12V38.88C38 38.633 37.807 38.416 37.561 38.387L35.357 38.106C35.159 38.081 34.995 37.94 34.94 37.748C34.76 37.122 34.512 36.525 34.204 35.974C34.106 35.799 34.122 35.582 34.246 35.424L35.606 33.674C35.763 33.472 35.749 33.19 35.573 33.02L33.988 31.435C33.813 31.253 33.53 31.239 33.328 31.396L31.578 32.756C31.419 32.879 31.202 32.896 31.027 32.798C30.478 32.49 29.881 32.243 29.253 32.062C29.061 32.007 28.92 31.843 28.895 31.645L28.615 29.445C28.584 29.193 28.367 29 28.12 29H25.88C25.633 29 25.416 29.193 25.387 29.439L25.106 31.643C25.081 31.841 24.94 32.005 24.748 32.061C24.12 32.241 23.523 32.489 22.974 32.796C22.799 32.895 22.582 32.877 22.423 32.755L20.673 31.395C20.471 31.238 20.19 31.252 20.019 31.428L18.434 33.014C18.253 33.19 18.239 33.472 18.395 33.674L19.755 35.424C19.878 35.582 19.895 35.799 19.797 35.974C19.488 36.525 19.241 37.122 19.061 37.748C19.006 37.94 18.842 38.081 18.644 38.106L16.444 38.386C16.193 38.416 16 38.633 16 38.88V41.12C16 41.367 16.193 41.584 16.439 41.613L18.643 41.894C18.841 41.919 19.005 42.06 19.06 42.252C19.24 42.878 19.488 43.475 19.796 44.026C19.894 44.201 19.878 44.418 19.754 44.576L18.394 46.326C18.237 46.528 18.251 46.81 18.427 46.98L20.012 48.565C20.187 48.746 20.468 48.76 20.672 48.604L22.422 47.244C22.513 47.176 22.621 47.14 22.73 47.14Z" stroke="#1D1D1D" stroke-width="0.2" mask="url(#path-1-outside-1)"/>
<path d="M21.95 40C21.95 42.7846 24.2154 45.05 27 45.05C29.7846 45.05 32.05 42.7846 32.05 40C32.05 37.2154 29.7846 34.95 27 34.95C24.2154 34.95 21.95 37.2154 21.95 40ZM23.05 40C23.05 37.8216 24.8216 36.05 27 36.05C29.1784 36.05 30.95 37.8216 30.95 40C30.95 42.1784 29.1784 43.95 27 43.95C24.8216 43.95 23.05 42.1784 23.05 40Z" fill="#1D1D1D" stroke="#1D1D1D" stroke-width="0.1"/>
</svg>
