<svg width="50" height="50" viewBox="0 0 50 50" fill="none" xmlns="http://www.w3.org/2000/svg">
<circle cx="25" cy="25" r="25" fill="#A5EAF0"/>
<mask id="mask0" mask-type="alpha" maskUnits="userSpaceOnUse" x="0" y="0" width="50" height="50">
<circle cx="25" cy="25" r="25" fill="#3BBFCA"/>
</mask>
<g mask="url(#mask0)">
<path d="M0.0381393 42.88L-1.57849 43.8009C-4.89641 45.6907 -6.8485 49.305 -6.60955 53.116L-6.07597 61.6258C-5.74556 66.8953 -1.37542 71 3.90444 71H47C52.5228 71 57 66.5228 57 61V51.6611C57 48.6545 55.5939 45.821 53.1996 44.0026C50.0254 41.5921 45.6933 41.3893 42.3079 43.4929L42.0079 43.6793C38.8561 45.6377 34.8558 45.5956 31.7459 43.5712L31.3116 43.2885C28.2664 41.3062 24.3163 41.3983 21.3669 43.5204C18.5236 45.5661 14.738 45.7317 11.727 43.9421L10.0967 42.9731C7.0046 41.1353 3.16371 41.0998 0.0381393 42.88Z" fill="#3BBFCA"/>
</g>
<path d="M18.184 35H21.736V27.32H28.456V35H31.984V17.216H28.456V24.224H21.736V17.216H18.184V35Z" fill="white"/>
</svg>
