<svg width="30" height="30" viewBox="0 0 30 30" fill="none" xmlns="http://www.w3.org/2000/svg">
<g clip-path="url(#clip0)">
<path d="M7.41218 10.4347C8.70124 10.4347 9.74996 9.38601 9.74996 8.09689V0.439453C9.74996 0.196758 9.55326 0 9.3105 0C9.06775 0 8.87105 0.196758 8.87105 0.439453V3.5918H8.31997V1.62281C8.31997 0.727969 7.59194 0 6.69716 0C5.80237 0 5.07434 0.727969 5.07434 1.62281V8.09689C5.07434 9.38601 6.12305 10.4347 7.41218 10.4347ZM8.87111 8.09695C8.87111 8.90139 8.21667 9.55588 7.41224 9.55588C6.6078 9.55588 5.95331 8.90145 5.95331 8.09695V4.4707H8.87117V8.09695H8.87111ZM6.69716 0.878906C7.10737 0.878906 7.44106 1.2126 7.44106 1.62281V3.5918H5.95319V1.62281C5.95325 1.2126 6.28694 0.878906 6.69716 0.878906Z" fill="#E1A93B"/>
<path d="M5.54724 19.8232H13.2875C13.5302 19.8232 13.7269 19.6265 13.7269 19.3838C13.7269 19.1411 13.5302 18.9443 13.2875 18.9443H5.54724C5.30449 18.9443 5.10779 19.1411 5.10779 19.3838C5.10779 19.6265 5.30449 19.8232 5.54724 19.8232Z" fill="#E1A93B"/>
<path d="M5.43982 14.8789H24.7752C25.0179 14.8789 25.2146 14.6821 25.2146 14.4395C25.2146 14.1968 25.0179 14 24.7752 14H5.43982C5.19707 14 5.00037 14.1968 5.00037 14.4395C5.00037 14.6821 5.19707 14.8789 5.43982 14.8789Z" fill="#E1A93B"/>
<path d="M26.1542 3.5918H11.3561C11.1133 3.5918 10.9166 3.78855 10.9166 4.03125C10.9166 4.27395 11.1133 4.4707 11.3561 4.4707H26.1542C26.9195 4.4707 27.5421 5.09326 27.5421 5.85855V21.9905H22.1913C21.21 21.9905 20.4116 22.7889 20.4116 23.7703V29.1211H3.84335C3.07806 29.1211 2.45544 28.4985 2.45544 27.7332V5.85855C2.45544 5.20207 2.92132 4.63025 3.56304 4.49889C3.65457 4.4802 3.7489 4.4707 3.8433 4.4707C4.08605 4.4707 4.28275 4.27395 4.28275 4.03125C4.28275 3.78855 4.08605 3.5918 3.8433 3.5918C3.6899 3.5918 3.53638 3.60727 3.38691 3.63785C2.33791 3.85254 1.57654 4.78646 1.57654 5.85855V27.7332C1.57654 28.9832 2.59337 30.0001 3.84335 30.0001H20.851C20.9675 30.0001 21.0792 29.9538 21.1617 29.8713L28.2923 22.7407C28.3747 22.6583 28.421 22.5465 28.421 22.43V5.85855C28.421 4.60863 27.4041 3.5918 26.1542 3.5918ZM22.1913 22.8694H26.9206L21.2904 28.4996V23.7703C21.2904 23.2735 21.6945 22.8694 22.1913 22.8694Z" fill="#E1A93B"/>
</g>
<defs>
<clipPath id="clip0">
<rect width="30" height="30" fill="white"/>
</clipPath>
</defs>
</svg>
