<svg width="50" height="50" viewBox="0 0 50 50" fill="none" xmlns="http://www.w3.org/2000/svg">
<circle cx="25" cy="25" r="25" fill="#B4EBE1"/>
<mask id="mask0" mask-type="alpha" maskUnits="userSpaceOnUse" x="0" y="0" width="50" height="50">
<circle cx="25" cy="25" r="25" fill="#3BBFCA"/>
</mask>
<g mask="url(#mask0)">
<path d="M1.03814 42.88L-0.69601 43.8678C-3.95262 45.7227 -5.89864 49.2429 -5.73742 52.9873L-4.90025 72.4302C-4.66986 77.7808 -0.265038 82 5.0905 82H48C53.5228 82 58 77.5228 58 72V51.6611C58 48.6545 56.5939 45.821 54.1996 44.0026C51.0254 41.5921 46.6933 41.3893 43.3079 43.4929L43.0079 43.6793C39.8561 45.6377 35.8558 45.5956 32.7459 43.5712L32.3116 43.2885C29.2664 41.3062 25.3163 41.3983 22.3669 43.5204C19.5236 45.5661 15.738 45.7317 12.727 43.9421L11.0967 42.9731C8.0046 41.1353 4.16371 41.0998 1.03814 42.88Z" fill="#7BCDBE"/>
</g>
<path d="M23.712 35H27.264V20.192H32.304V17.216H18.72V20.192H23.712V35Z" fill="white"/>
</svg>
