<svg width="12" height="12" viewBox="0 0 12 12" fill="none" xmlns="http://www.w3.org/2000/svg">
<path d="M10.6973 8.45654C9.94135 7.8175 9.50784 6.88348 9.50784 5.89398V4.5C9.50784 2.74054 8.20084 1.28403 6.50784 1.04004V0.499969C6.50784 0.22348 6.28381 0 6.00778 0C5.73184 0 5.50781 0.22348 5.50781 0.499969V1.04004C3.81427 1.28403 2.50781 2.74054 2.50781 4.5V5.89398C2.50781 6.88348 2.07431 7.8175 1.31378 8.46048C1.11932 8.62701 1.00781 8.86899 1.00781 9.12497C1.00781 9.60754 1.4003 10 1.88278 10H10.1328C10.6154 10 11.0078 9.60754 11.0078 9.12497C11.0078 8.86899 10.8963 8.62701 10.6973 8.45654Z" fill="#D2D2D2"/>
<path d="M6.00778 12C6.91333 12 7.67084 11.3545 7.84479 10.5H4.17078C4.34482 11.3545 5.10233 12 6.00778 12Z" fill="#D2D2D2"/>
</svg>
