<svg width="12" height="12" viewBox="0 0 12 12" fill="none" xmlns="http://www.w3.org/2000/svg">
<path d="M6 0C2.6916 0 0 2.6916 0 6C0 9.3084 2.6916 12 6 12C9.3084 12 12 9.3084 12 6C12 2.6916 9.3084 0 6 0ZM3.09091 6.90909C2.58964 6.90909 2.18182 6.50127 2.18182 6C2.18182 5.49873 2.58964 5.09091 3.09091 5.09091C3.59218 5.09091 4 5.49873 4 6C4 6.50127 3.59218 6.90909 3.09091 6.90909ZM6 6.90909C5.49873 6.90909 5.09091 6.50127 5.09091 6C5.09091 5.49873 5.49873 5.09091 6 5.09091C6.50127 5.09091 6.90909 5.49873 6.90909 6C6.90909 6.50127 6.50127 6.90909 6 6.90909ZM8.90909 6.90909C8.40782 6.90909 8 6.50127 8 6C8 5.49873 8.40782 5.09091 8.90909 5.09091C9.41036 5.09091 9.81818 5.49873 9.81818 6C9.81818 6.50127 9.41036 6.90909 8.90909 6.90909Z" fill="#D2D2D2"/>
</svg>
