<svg width="10" height="10" viewBox="0 0 10 10" fill="none" xmlns="http://www.w3.org/2000/svg">
<path d="M8.60834 0.686919C8.10432 0.183787 7.28812 0.183787 6.7841 0.686919L6.32746 1.14606L1.46652 6.00442L1.45619 6.01483C1.45369 6.01734 1.45369 6.02 1.45103 6.02C1.44586 6.02775 1.43811 6.03541 1.43303 6.04316C1.43303 6.04575 1.43036 6.04575 1.43036 6.04833C1.4252 6.05608 1.4227 6.06124 1.41745 6.06899C1.41495 6.07157 1.41495 6.07407 1.41237 6.07674C1.40978 6.08449 1.4072 6.08965 1.40454 6.0974C1.40454 6.0999 1.40204 6.0999 1.40204 6.10256L0.323539 9.34572C0.291902 9.43805 0.315953 9.54031 0.385442 9.60883C0.43427 9.65701 0.500128 9.68397 0.568648 9.68372C0.596654 9.68324 0.624417 9.67888 0.651212 9.67081L3.89187 8.58973C3.89437 8.58973 3.89437 8.58973 3.89703 8.58723C3.90518 8.58481 3.91301 8.58134 3.92019 8.57682C3.92221 8.57658 3.92399 8.57569 3.92544 8.57432C3.93311 8.56915 3.94344 8.5639 3.95119 8.55874C3.95885 8.55365 3.96668 8.54591 3.97443 8.54074C3.97701 8.53808 3.97951 8.53808 3.97951 8.53558C3.98218 8.53299 3.98734 8.53049 3.98993 8.52525L9.30751 3.20766C9.81064 2.70364 9.81064 1.88745 9.30751 1.38351L8.60834 0.686919ZM3.8093 7.98337L2.01356 6.18771L6.50808 1.69318L8.30383 3.48885L3.8093 7.98337ZM1.76062 6.66502L3.32941 8.23373L0.97372 9.01805L1.76062 6.66502ZM8.94376 2.84641L8.67024 3.12251L6.87442 1.32669L7.1506 1.05067C7.45269 0.748822 7.94234 0.748822 8.24451 1.05067L8.94626 1.75242C9.24609 2.05588 9.24496 2.54441 8.94376 2.84641Z" fill="white"/>
</svg>
