<svg width="80" height="80" viewBox="0 0 80 80" fill="none" xmlns="http://www.w3.org/2000/svg">
<circle cx="40" cy="40" r="40" fill="#E9E9E9"/>
<path d="M39.5924 38.0518C44.1509 38.0518 47.8466 33.5631 47.8466 28.026C47.8466 22.4887 46.6333 18 39.5924 18C32.5515 18 31.3378 22.4887 31.3378 28.026C31.3378 33.5631 35.0336 38.0518 39.5924 38.0518Z" fill="white"/>
<path d="M24.0016 53.36C24.0002 53.0224 23.9988 53.2649 24.0016 53.36V53.36Z" fill="white"/>
<path d="M55.1824 53.6231C55.1868 53.5307 55.1839 52.9818 55.1824 53.6231V53.6231Z" fill="white"/>
<path d="M55.1648 52.9545C55.0119 43.3087 53.7522 40.5601 44.1121 38.8203C44.1121 38.8203 42.7551 40.5495 39.5922 40.5495C36.4294 40.5495 35.0721 38.8203 35.0721 38.8203C25.5373 40.5411 24.2009 43.2489 24.0252 52.6411C24.0108 53.4081 24.0041 53.4484 24.0015 53.3593C24.0021 53.5261 24.0028 53.8347 24.0028 54.3727C24.0028 54.3727 26.2979 58.9994 39.5922 58.9994C52.8864 58.9994 55.1817 54.3727 55.1817 54.3727C55.1817 54.027 55.1819 53.7867 55.1823 53.6231C55.1797 53.6782 55.1745 53.5715 55.1648 52.9545Z" fill="white"/>
</svg>
