<svg width="40" height="40" viewBox="0 0 40 40" fill="none" xmlns="http://www.w3.org/2000/svg">
<path d="M15.5017 28.6699C15.0406 28.6699 14.668 28.2973 14.668 27.8362V12.8362C14.668 12.3763 15.0418 12.0024 15.5017 12.0024C15.9616 12.0024 16.3342 12.3763 16.3342 12.8362V27.8362C16.3342 28.2973 15.9616 28.6699 15.5017 28.6699Z" fill="white"/>
<path d="M21.1255 20.7524H15.7092C15.2493 20.7524 14.8755 20.3798 14.8755 19.9187C14.8755 19.4588 15.2493 19.085 15.7092 19.085H21.1255C22.6193 19.085 23.8342 17.8701 23.8342 16.3762C23.8342 14.8824 22.6193 13.6675 21.1255 13.6675H13.8342C13.3743 13.6675 13.0005 13.2949 13.0005 12.8337C13.0005 12.3735 13.3743 12 13.8342 12H21.1255C23.5379 12 25.5005 13.9623 25.5005 16.375C25.5005 18.7874 23.5379 20.7524 21.1255 20.7524Z" fill="white"/>
<path d="M21.5425 28.6699H13.8337C13.3738 28.6699 13 28.2973 13 27.8362C13 27.3763 13.3738 27.0024 13.8337 27.0024H21.5425C23.2661 27.0024 24.6675 25.5999 24.6675 23.8774C24.6675 22.155 23.2661 20.7524 21.5425 20.7524H15.7087C15.2488 20.7524 14.875 20.3798 14.875 19.9187C14.875 19.4588 15.2488 19.085 15.7087 19.085H21.5425C24.185 19.085 26.3337 21.2337 26.3337 23.8762C26.3337 26.5187 24.185 28.6699 21.5425 28.6699Z" fill="white"/>
</svg>
