<svg width="40" height="40" viewBox="0 0 40 40" fill="none" xmlns="http://www.w3.org/2000/svg">
<path d="M13.3325 13.6663C13.3325 14.5864 12.5864 15.3325 11.6663 15.3325C10.7462 15.3325 10 14.5864 10 13.6663C10 12.7462 10.7462 12 11.6663 12C12.5864 12 13.3325 12.7462 13.3325 13.6663Z" fill="white"/>
<path d="M13.3325 20.3325C13.3325 21.2526 12.5864 21.9988 11.6663 21.9988C10.7462 21.9988 10 21.2526 10 20.3325C10 19.4124 10.7462 18.6663 11.6663 18.6663C12.5864 18.6663 13.3325 19.4124 13.3325 20.3325Z" fill="white"/>
<path d="M13.3325 26.9988C13.3325 27.9189 12.5864 28.665 11.6663 28.665C10.7462 28.665 10 27.9189 10 26.9988C10 26.0787 10.7462 25.3325 11.6663 25.3325C12.5864 25.3325 13.3325 26.0787 13.3325 26.9988Z" fill="white"/>
<path d="M29.1658 14.4988H16.6658C16.2059 14.4988 15.832 14.1262 15.832 13.665C15.832 13.2039 16.2047 12.8325 16.6658 12.8325H29.1658C29.6257 12.8325 29.9995 13.2051 29.9995 13.6663C29.9995 14.1274 29.6257 14.4988 29.1658 14.4988Z" fill="white"/>
<path d="M29.1658 21.1663H16.6658C16.2059 21.1663 15.832 20.7936 15.832 20.3325C15.832 19.8726 16.2047 19.4988 16.6658 19.4988H29.1658C29.6257 19.4988 29.9995 19.8714 29.9995 20.3325C29.9995 20.7924 29.6257 21.1663 29.1658 21.1663Z" fill="white"/>
<path d="M29.1658 27.8325H16.6658C16.2059 27.8325 15.832 27.4599 15.832 26.9988C15.832 26.5389 16.2047 26.165 16.6658 26.165H29.1658C29.6257 26.165 29.9995 26.5377 29.9995 26.9988C29.9995 27.4599 29.6257 27.8325 29.1658 27.8325Z" fill="white"/>
</svg>
