<svg width="24" height="24" viewBox="0 0 24 24" fill="none" xmlns="http://www.w3.org/2000/svg">
<path fill-rule="evenodd" clip-rule="evenodd" d="M5.75063 5.99995C5.33662 5.99995 5.00063 5.66395 5.00063 5.24995V3.50038H2.75006C2.06104 3.50038 1.5 4.06122 1.5 4.75024V8.00016H22.5V4.75024C22.5 4.06122 21.939 3.50038 21.2499 3.50038H18.9994V5.24995C18.9994 5.66395 18.6634 5.99995 18.2494 5.99995C17.8354 5.99995 17.4994 5.66395 17.4994 5.24995V3.50038H6.50063V5.24995C6.50063 5.66395 6.16463 5.99995 5.75063 5.99995ZM17.4994 2.00039H6.50063V0.749993C6.50063 0.335995 6.16463 0 5.75063 0C5.33662 0 5.00063 0.335995 5.00063 0.749993V2.00039H2.75006C1.23303 2.00039 0 3.23323 0 4.75024V8.75015V21.2501C0 22.7671 1.23303 24.0001 2.75006 24.0001H21.2499C22.767 24.0001 24 22.7671 24 21.2501V8.75015V4.75024C24 3.23323 22.767 2.00039 21.2499 2.00039H18.9994V0.749993C18.9994 0.335995 18.6634 0 18.2494 0C17.8354 0 17.4994 0.335995 17.4994 0.749993V2.00039ZM1.5 9.50014H22.5V21.2501C22.5 21.9391 21.939 22.5001 21.2499 22.5001H2.75006C2.06104 22.5001 1.5 21.9391 1.5 21.2501V9.50014Z" fill="#1D1D1D"/>
</svg>
