<svg width="40" height="40" viewBox="0 0 40 40" fill="none" xmlns="http://www.w3.org/2000/svg">
<path d="M19.3337 28.6675H16.8337C16.3738 28.6675 16 28.2949 16 27.8337C16 27.3738 16.3738 27 16.8337 27H19.3337C19.7936 27 20.1663 27.3738 20.1663 27.8337C20.1663 28.2949 19.7936 28.6675 19.3337 28.6675Z" fill="#1D1D1D"/>
<path d="M23.5002 13.6675H21.0002C20.5403 13.6675 20.1665 13.2949 20.1665 12.8337C20.1665 12.3738 20.5403 12 21.0002 12H23.5002C23.9601 12 24.334 12.3726 24.334 12.8337C24.334 13.2949 23.9601 13.6675 23.5002 13.6675Z" fill="#1D1D1D"/>
<path d="M18.0831 28.6676C18.0093 28.6676 17.9345 28.6576 17.8594 28.6377C17.4157 28.5138 17.1557 28.0552 17.2793 27.6114L21.4456 12.6114C21.5695 12.1689 22.0294 11.9101 22.4719 12.0313C22.9156 12.1552 23.1756 12.6139 23.052 13.0576L18.8857 28.0576C18.7832 28.425 18.4481 28.6676 18.0831 28.6676Z" fill="#1D1D1D"/>
</svg>
