<svg width="40" height="40" viewBox="0 0 40 40" fill="none" xmlns="http://www.w3.org/2000/svg">
<path d="M13.2075 22.6663H11.125C10.7802 22.6663 10.5 22.3861 10.5 22.0413V21C10.5 20.1962 11.1537 19.5413 11.9587 19.5413H12.375C12.4901 19.5413 12.5837 19.4476 12.5837 19.3325V19.1238C12.5837 19.0087 12.4901 18.915 12.375 18.915H11.125C10.7802 18.915 10.5 18.6349 10.5 18.29C10.5 17.9449 10.7802 17.665 11.125 17.665H12.375C13.1788 17.665 13.8337 18.3187 13.8337 19.1238V19.3325C13.8337 20.1364 13.1801 20.7913 12.375 20.7913H11.9575C11.8425 20.7913 11.7488 20.8849 11.7488 21V21.4163H13.2075C13.5524 21.4163 13.8325 21.6964 13.8325 22.0413C13.8325 22.3861 13.5524 22.6663 13.2075 22.6663Z" fill="white"/>
<path d="M12.375 27.4575H11.5413C11.1964 27.4575 10.9163 27.1774 10.9163 26.8325C10.9163 26.4874 11.1964 26.2075 11.5413 26.2075H12.375C12.4901 26.2075 12.5837 26.1138 12.5837 25.9988V25.7913C12.5837 25.6762 12.4901 25.5825 12.375 25.5825H11.125C10.7802 25.5825 10.5 25.3024 10.5 24.9575C10.5 24.6124 10.7802 24.3325 11.125 24.3325H12.375C13.1788 24.3325 13.8337 24.9862 13.8337 25.7913V26C13.8325 26.8038 13.1788 27.4575 12.375 27.4575Z" fill="white"/>
<path d="M12.375 29.3325H11.125C10.7802 29.3325 10.5 29.0524 10.5 28.7075C10.5 28.3624 10.7802 28.0825 11.125 28.0825H12.375C12.4901 28.0825 12.5837 27.9888 12.5837 27.8738V27.6663C12.5837 27.5512 12.4901 27.4575 12.375 27.4575H11.5413C11.1964 27.4575 10.9163 27.1774 10.9163 26.8325C10.9163 26.4874 11.1964 26.2075 11.5413 26.2075H12.375C13.1788 26.2075 13.8337 26.8612 13.8337 27.6663V27.875C13.8325 28.6788 13.1788 29.3325 12.375 29.3325Z" fill="white"/>
<path d="M12.375 16C12.0302 16 11.75 15.7202 11.75 15.375V12.25H11.125C10.7802 12.25 10.5 11.9702 10.5 11.625C10.5 11.2802 10.7802 11 11.125 11H12.375C12.7202 11 13 11.2802 13 11.625V15.375C13 15.7202 12.7202 16 12.375 16Z" fill="white"/>
<path d="M28.8323 14.3325H16.3323C15.8724 14.3325 15.4985 13.9599 15.4985 13.4988C15.4985 13.0377 15.8724 12.6663 16.3323 12.6663H28.8323C29.2922 12.6663 29.666 13.0389 29.666 13.5C29.666 13.9611 29.2934 14.3325 28.8323 14.3325Z" fill="white"/>
<path d="M28.8323 21H16.3323C15.8724 21 15.4985 20.6274 15.4985 20.1663C15.4985 19.7064 15.8712 19.3325 16.3323 19.3325H28.8323C29.2922 19.3325 29.666 19.7051 29.666 20.1663C29.666 20.6262 29.2934 21 28.8323 21Z" fill="white"/>
<path d="M28.8323 27.6663H16.3323C15.8724 27.6663 15.4985 27.2936 15.4985 26.8325C15.4985 26.3726 15.8712 25.9988 16.3323 25.9988H28.8323C29.2922 25.9988 29.666 26.3714 29.666 26.8325C29.666 27.2936 29.2934 27.6663 28.8323 27.6663Z" fill="white"/>
</svg>
