<svg width="40" height="40" viewBox="0 0 40 40" fill="none" xmlns="http://www.w3.org/2000/svg">
<path d="M19.6665 28.6675C16.9089 28.6675 14.6665 26.6112 14.6665 24.0837C14.6665 23.6238 15.0403 23.25 15.5002 23.25C15.9601 23.25 16.334 23.6226 16.334 24.0837C16.334 25.6911 17.829 27 19.6677 27C21.5052 27 23.0015 25.6911 23.0015 24.0837C23.0015 22.4764 21.5052 21.1675 19.6665 21.1675C16.9089 21.1675 14.6665 19.1112 14.6665 16.5837C14.6665 14.0563 16.9089 12 19.6665 12C22.4241 12 24.6665 14.0563 24.6665 16.5837C24.6665 17.0436 24.2927 17.4175 23.8328 17.4175C23.3729 17.4175 23.0002 17.0449 23.0002 16.5837C23.0002 14.9764 21.5052 13.6675 19.6665 13.6675C17.829 13.6675 16.3328 14.9764 16.3328 16.5837C16.3328 18.1911 17.829 19.5 19.6665 19.5C22.4241 19.5 24.6665 21.5563 24.6665 24.0837C24.6665 26.6112 22.4241 28.6675 19.6665 28.6675Z" fill="white"/>
<path d="M25.5 21.1675H13.8337C13.3738 21.1675 13 20.7949 13 20.3337C13 19.8738 13.3738 19.5 13.8337 19.5H25.5C25.9599 19.5 26.3337 19.8726 26.3337 20.3337C26.3337 20.7949 25.9599 21.1675 25.5 21.1675Z" fill="white"/>
</svg>
