<svg width="40" height="40" viewBox="0 0 40 40" fill="none" xmlns="http://www.w3.org/2000/svg">
<path d="M19.5002 26.1675C16.284 26.1675 13.6665 23.55 13.6665 20.3337V12.8337C13.6665 12.3738 14.0403 12 14.5002 12C14.9601 12 15.334 12.3738 15.334 12.8337V20.3337C15.334 22.6311 17.2029 24.5 19.5002 24.5C21.7976 24.5 23.6665 22.6311 23.6665 20.3337V12.8337C23.6665 12.3738 24.0403 12 24.5002 12C24.9601 12 25.334 12.3738 25.334 12.8337V20.3337C25.334 23.55 22.7165 26.1675 19.5002 26.1675Z" fill="white"/>
<path d="M16.1663 13.6675H12.8325C12.3726 13.6675 12 13.2949 12 12.8337C12 12.3738 12.3738 12 12.8337 12H16.1675C16.6262 12 17 12.3738 17 12.8337C17 13.2949 16.6262 13.6675 16.1663 13.6675Z" fill="white"/>
<path d="M26.1663 13.6675H22.8325C22.3726 13.6675 22 13.2949 22 12.8337C22 12.3738 22.3738 12 22.8337 12H26.1675C26.6262 12 27 12.3738 27 12.8337C27 13.2949 26.6262 13.6675 26.1663 13.6675Z" fill="white"/>
<path d="M25.3335 28.6675H13.6672C13.2073 28.6675 12.8335 28.2949 12.8335 27.8337C12.8335 27.3738 13.2073 27 13.6672 27H25.3335C25.7934 27 26.1672 27.3726 26.1672 27.8337C26.166 28.2949 25.7934 28.6675 25.3335 28.6675Z" fill="white"/>
</svg>
